<svg width="25.000000" height="25.000000" viewBox="0 0 25 25" fill="none" xmlns="http://www.w3.org/2000/svg" xmlns:xlink="http://www.w3.org/1999/xlink">
	<desc>
			Created with Pixso.
	</desc>
	<defs/>
	<path id="Vector" d="M21.82 -0.69L3.07 -0.69C1.34 -0.69 -0.06 0.71 -0.06 2.43L-0.06 21.18C-0.06 22.91 1.34 24.31 3.07 24.31L21.82 24.31C23.54 24.31 24.94 22.91 24.94 21.18L24.94 2.43C24.94 0.71 23.54 -0.69 21.82 -0.69Z" fill="#1976D2" fill-opacity="1.000000" fill-rule="nonzero"/>
	<path id="Vector" d="M21.04 11.81L17.13 11.81L17.13 8.68C17.13 7.82 17.83 7.9 18.69 7.9L20.26 7.9L20.26 4L17.13 4C14.54 4 12.44 6.1 12.44 8.68L12.44 11.81L9.32 11.81L9.32 15.72L12.44 15.72L12.44 24.31L17.13 24.31L17.13 15.72L19.47 15.72L21.04 11.81Z" fill="#FAFAFA" fill-opacity="1.000000" fill-rule="nonzero"/>
</svg>
