<svg width="18.000000" height="18.000000" viewBox="0 0 18 18" fill="none" xmlns="http://www.w3.org/2000/svg" xmlns:xlink="http://www.w3.org/1999/xlink">
	<desc>
			Created with Pixso.
	</desc>
	<defs>
		<clipPath id="clip3_76">
			<rect id="icon/outlined/application/home" width="18.000000" height="18.000000" fill="white" fill-opacity="0"/>
		</clipPath>
	</defs>
	<rect id="icon/outlined/application/home" width="18.000000" height="18.000000" fill="#FFFFFF" fill-opacity="0"/>
	<g clip-path="url(#clip3_76)">
		<path id="Vector" d="M16.63 8.87L9.84 2.08L9.39 1.63C9.28 1.53 9.14 1.47 8.99 1.47C8.85 1.47 8.71 1.53 8.6 1.63L1.36 8.87C1.25 8.98 1.17 9.1 1.11 9.24C1.05 9.38 1.03 9.53 1.03 9.68C1.03 10.3 1.55 10.79 2.17 10.79L2.91 10.79L2.91 16.52L15.08 16.52L15.08 10.79L15.84 10.79C16.14 10.79 16.42 10.68 16.63 10.46C16.74 10.36 16.82 10.23 16.88 10.1C16.94 9.96 16.96 9.81 16.96 9.67C16.96 9.37 16.85 9.08 16.63 8.87ZM9.98 15.25L8.01 15.25L8.01 11.67L9.98 11.67L9.98 15.25ZM13.81 9.53L13.81 15.25L11.1 15.25L11.1 11.25C11.1 10.86 10.79 10.54 10.4 10.54L7.59 10.54C7.2 10.54 6.89 10.86 6.89 11.25L6.89 15.25L4.18 15.25L4.18 9.53L2.49 9.53L9 3.03L9.4 3.44L15.5 9.53L13.81 9.53Z" fill="#8C8C8C" fill-opacity="1.000000" fill-rule="nonzero"/>
	</g>
</svg>
