<svg width="100.000000" height="36.000000" viewBox="0 0 100 36" fill="none" xmlns="http://www.w3.org/2000/svg" xmlns:xlink="http://www.w3.org/1999/xlink">
	<desc>
			Created with Pixso.
	</desc>
	<defs/>
	<path id="Vector" d="M9.13 5.56L11.27 5.56L11.27 6.63L9.13 6.63L9.13 5.56Z" fill="#000000" fill-opacity="1.000000" fill-rule="evenodd"/>
	<path id="Vector" d="M9.13 7.7L11.27 7.7L11.27 8.77L9.13 8.77L9.13 7.7Z" fill="#000000" fill-opacity="1.000000" fill-rule="evenodd"/>
	<path id="Vector" d="M9.13 9.84L11.27 9.84L11.27 10.91L9.13 10.91L9.13 9.84Z" fill="#000000" fill-opacity="1.000000" fill-rule="evenodd"/>
	<path id="Vector" d="M18.76 6.09L17.69 6.09C17.69 6.38 17.58 6.65 17.38 6.85C17.18 7.05 16.91 7.16 16.62 7.16L16.62 8.23C17.19 8.23 17.73 8.01 18.13 7.6C18.53 7.2 18.76 6.66 18.76 6.09Z" fill="#000000" fill-opacity="1.000000" fill-rule="nonzero"/>
	<path id="Vector" d="M21.43 8.77L21.43 7.7C21.15 7.7 20.88 7.58 20.68 7.38C20.48 7.18 20.37 6.91 20.37 6.63L19.3 6.63C19.3 7.19 19.52 7.74 19.92 8.14C20.32 8.54 20.87 8.77 21.43 8.77Z" fill="#000000" fill-opacity="1.000000" fill-rule="nonzero"/>
	<path id="Vector" d="M27.05 32.05C26.15 32.21 25.23 32.25 24.31 32.17L15.01 31.32C14.86 31.31 14.73 31.24 14.63 31.13C14.53 31.01 14.48 30.87 14.48 30.72C14.49 30.57 14.55 30.42 14.66 30.32C14.77 30.22 14.92 30.16 15.07 30.16L22.24 30.16C22.59 30.16 22.93 30.02 23.18 29.77C23.43 29.51 23.57 29.17 23.57 28.82L23.57 28.81C23.57 28.53 23.48 28.25 23.31 28.03L22.09 26.4C22.01 26.29 21.97 26.17 21.97 26.04L21.97 25.94C21.97 25.83 22 25.71 22.07 25.61C22.14 25.51 22.23 25.44 22.34 25.39C22.45 25.35 22.57 25.33 22.69 25.36C22.8 25.38 22.91 25.44 22.99 25.52L25.33 27.86C25.38 27.91 25.44 27.95 25.51 27.98C25.57 28.01 25.64 28.02 25.71 28.02L31.6 28.02L31.6 26.95L25.93 26.95L23.75 24.76C23.69 24.71 23.64 24.66 23.57 24.61L23.57 12.51C23.57 12.37 23.52 12.23 23.42 12.13C23.32 12.03 23.18 11.98 23.04 11.98L22.5 11.98L22.5 10.37L23.31 10.37C23.8 10.37 24.28 10.17 24.63 9.82C24.98 9.47 25.18 9 25.18 8.5C25.18 8 24.98 7.53 24.63 7.18C24.28 6.82 23.8 6.63 23.31 6.63L23.25 6.63C23.52 6.31 23.66 5.9 23.64 5.48C23.62 5.06 23.44 4.67 23.15 4.37C22.85 4.08 22.45 3.91 22.04 3.89C21.62 3.87 21.21 4.01 20.89 4.28C20.84 3.75 20.59 3.26 20.2 2.9C19.81 2.55 19.29 2.35 18.76 2.35C18.23 2.35 17.72 2.55 17.32 2.9C16.93 3.26 16.68 3.75 16.63 4.28C16.31 4.01 15.9 3.87 15.49 3.89C15.07 3.91 14.67 4.08 14.38 4.37C14.08 4.67 13.9 5.06 13.88 5.48C13.86 5.9 14 6.31 14.27 6.63L14.22 6.63C13.94 6.63 13.66 6.69 13.41 6.81L13.41 4.49C13.41 3.64 13.07 2.82 12.47 2.22C11.87 1.62 11.06 1.28 10.2 1.28C9.35 1.28 8.54 1.62 7.94 2.22C7.33 2.82 7 3.64 7 4.49L7 11.98L6.46 11.98C6.32 11.98 6.18 12.03 6.08 12.13C5.98 12.23 5.93 12.37 5.93 12.51L5.93 14.86L3.05 17.32L-0.49 17.32L-0.49 18.39L3.25 18.39C3.38 18.39 3.5 18.35 3.6 18.26L6.7 15.61C7.02 15.33 7.42 15.18 7.84 15.18C7.89 15.18 7.93 15.2 7.97 15.22C8 15.25 8.03 15.28 8.05 15.32C8.06 15.36 8.07 15.41 8.06 15.45C8.05 15.49 8.03 15.53 8 15.56L6.08 17.48C6.01 17.55 5.96 17.65 5.94 17.75C5.92 17.86 5.93 17.96 5.97 18.06C6.01 18.16 6.08 18.24 6.16 18.3C6.25 18.36 6.35 18.39 6.46 18.39L12.08 18.39C12.15 18.39 12.21 18.42 12.27 18.47C12.32 18.52 12.34 18.59 12.34 18.66C12.34 18.73 12.32 18.8 12.27 18.85C12.21 18.9 12.15 18.93 12.08 18.93L8.06 18.93C7.92 18.93 7.79 18.98 7.69 19.08C7.59 19.18 7.53 19.32 7.53 19.46C7.53 19.6 7.59 19.74 7.69 19.84C7.79 19.94 7.92 20 8.06 20L13.68 20C13.75 20 13.82 20.03 13.87 20.08C13.92 20.13 13.95 20.19 13.95 20.26C13.95 20.34 13.92 20.4 13.87 20.45C13.82 20.5 13.75 20.53 13.68 20.53L8.06 20.53C7.92 20.53 7.79 20.59 7.69 20.69C7.59 20.79 7.53 20.92 7.53 21.07C7.53 21.21 7.59 21.34 7.69 21.44C7.79 21.55 7.92 21.6 8.06 21.6L12.61 21.6C12.68 21.6 12.75 21.63 12.8 21.68C12.85 21.73 12.88 21.8 12.88 21.87C12.88 21.94 12.85 22.01 12.8 22.06C12.75 22.11 12.68 22.14 12.61 22.14L8.06 22.14C7.92 22.14 7.79 22.19 7.69 22.29C7.59 22.39 7.53 22.53 7.53 22.67C7.53 22.81 7.59 22.95 7.69 23.05C7.79 23.15 7.92 23.21 8.06 23.21L10.71 23.21C10.71 23.21 10.72 23.21 10.73 23.22C10.73 23.22 10.74 23.23 10.74 23.24C10.74 23.25 10.74 23.25 10.73 23.26C10.72 23.27 10.72 23.27 10.71 23.27L7.04 23.73L3.4 22.69C3.35 22.68 3.3 22.67 3.25 22.67L-0.49 22.67L-0.49 23.74L3.18 23.74L5.93 24.53L5.93 29.62L5.93 29.62C5.93 29.69 5.94 29.76 5.97 29.83C5.99 29.89 6.03 29.95 6.08 30C6.13 30.05 6.19 30.09 6.26 30.12C6.32 30.14 6.39 30.16 6.46 30.16L13.52 30.16C13.43 30.4 13.4 30.65 13.42 30.91C13.45 31.16 13.53 31.4 13.67 31.62C13.8 31.84 13.98 32.02 14.2 32.15C14.42 32.28 14.66 32.36 14.92 32.39L24.22 33.23C24.55 33.26 24.89 33.28 25.23 33.28C25.91 33.28 26.58 33.22 27.24 33.1L31.69 32.29L31.5 31.24L27.05 32.05ZM12.34 9.84C12.34 9.69 12.4 9.56 12.5 9.46C12.6 9.36 12.74 9.3 12.88 9.3L13.95 9.3C14.51 9.3 15.06 9.53 15.46 9.93C15.86 10.33 16.09 10.87 16.09 11.44C16.09 11.58 16.03 11.72 15.93 11.82C15.83 11.92 15.69 11.98 15.55 11.98L14.48 11.98C13.92 11.97 13.37 11.75 12.97 11.35C12.57 10.95 12.34 10.4 12.34 9.84ZM14.22 7.7L15.55 7.7C15.66 7.7 15.76 7.67 15.85 7.61C15.94 7.55 16.01 7.46 16.05 7.37C16.09 7.27 16.1 7.16 16.08 7.06C16.06 6.95 16 6.86 15.93 6.78L15.13 5.98C15.07 5.93 15.03 5.86 15 5.79C14.97 5.71 14.95 5.64 14.95 5.56C14.95 5.48 14.97 5.4 15 5.33C15.03 5.26 15.07 5.19 15.13 5.13C15.18 5.08 15.25 5.03 15.32 5C15.4 4.97 15.47 4.96 15.55 4.96C15.63 4.96 15.71 4.97 15.78 5C15.85 5.03 15.92 5.08 15.98 5.13L16.78 5.94C16.85 6.01 16.95 6.06 17.05 6.08C17.16 6.1 17.26 6.09 17.36 6.05C17.46 6.01 17.54 5.94 17.6 5.85C17.66 5.77 17.69 5.66 17.69 5.56L17.69 4.49C17.69 4.2 17.8 3.93 18 3.73C18.2 3.53 18.48 3.42 18.76 3.42C19.04 3.42 19.32 3.53 19.52 3.73C19.72 3.93 19.83 4.2 19.83 4.49L19.83 5.56C19.83 5.66 19.86 5.77 19.92 5.85C19.98 5.94 20.06 6.01 20.16 6.05C20.26 6.09 20.37 6.1 20.47 6.08C20.57 6.06 20.67 6.01 20.74 5.94L21.55 5.13C21.6 5.08 21.67 5.03 21.74 5C21.81 4.97 21.89 4.96 21.97 4.96C22.05 4.96 22.13 4.97 22.2 5C22.27 5.03 22.34 5.08 22.39 5.13C22.45 5.19 22.49 5.26 22.52 5.33C22.55 5.4 22.57 5.48 22.57 5.56C22.57 5.64 22.55 5.71 22.52 5.79C22.49 5.86 22.45 5.93 22.39 5.98L21.59 6.78C21.52 6.86 21.47 6.95 21.45 7.06C21.42 7.16 21.43 7.27 21.48 7.37C21.52 7.46 21.58 7.55 21.67 7.61C21.76 7.67 21.86 7.7 21.97 7.7L23.31 7.7C23.52 7.7 23.72 7.78 23.87 7.93C24.02 8.08 24.11 8.29 24.11 8.5C24.11 8.71 24.02 8.92 23.87 9.07C23.72 9.22 23.52 9.3 23.31 9.3L21.97 9.3C21.83 9.3 21.69 9.36 21.59 9.46C21.49 9.56 21.43 9.69 21.43 9.84L21.43 10.12C20.81 9.56 19.99 9.27 19.15 9.3C18.32 9.34 17.53 9.71 16.95 10.32C16.72 9.71 16.31 9.18 15.78 8.81C15.24 8.43 14.6 8.23 13.95 8.23L13.46 8.23C13.52 8.08 13.62 7.94 13.75 7.84C13.89 7.75 14.05 7.7 14.22 7.7ZM21.37 11.98L17.22 11.98C17.34 11.52 17.61 11.11 17.99 10.82C18.36 10.53 18.82 10.37 19.3 10.37C19.77 10.37 20.23 10.53 20.61 10.82C20.98 11.11 21.25 11.52 21.37 11.98ZM8.06 4.49C8.06 3.92 8.29 3.38 8.69 2.98C9.09 2.57 9.64 2.35 10.2 2.35C10.77 2.35 11.32 2.57 11.72 2.98C12.12 3.38 12.34 3.92 12.34 4.49L12.34 8.32C12.03 8.43 11.76 8.64 11.57 8.91C11.38 9.18 11.27 9.5 11.27 9.84C11.27 10.63 11.57 11.39 12.09 11.98L8.06 11.98L8.06 4.49ZM9.13 13.04L10.2 13.04L10.2 17.32L9.13 17.32L9.13 13.04ZM7.84 14.11C7.56 14.11 7.27 14.16 7 14.25L7 13.04L8.06 13.04L8.06 14.13C7.99 14.12 7.92 14.11 7.84 14.11ZM8.06 17.01L8.06 17.32L7.75 17.32L8.06 17.01ZM9.13 24.55L10.2 24.41L10.2 28.33L9.13 27.26L9.13 24.55ZM7.06 24.81L8.06 24.68L8.06 27.26L7 28.33L7 24.81C7.02 24.81 7.04 24.81 7.06 24.81ZM7.75 29.09L8.6 28.24L9.45 29.09L7.75 29.09ZM11.27 24.18C11.44 24.09 11.57 23.95 11.67 23.78C11.76 23.62 11.81 23.43 11.81 23.24C11.81 23.23 11.81 23.22 11.81 23.21L12.61 23.21C12.81 23.21 13.01 23.16 13.19 23.07C13.37 22.99 13.53 22.86 13.65 22.71C13.78 22.55 13.87 22.37 13.91 22.17C13.96 21.98 13.96 21.78 13.92 21.58C14.25 21.52 14.54 21.34 14.74 21.08C14.95 20.81 15.04 20.48 15.01 20.15C14.98 19.81 14.83 19.5 14.58 19.28C14.34 19.05 14.01 18.93 13.68 18.93L13.39 18.93C13.43 18.73 13.42 18.53 13.37 18.34C13.33 18.15 13.24 17.97 13.11 17.81C12.99 17.66 12.83 17.54 12.65 17.45C12.47 17.37 12.27 17.32 12.08 17.32L11.27 17.32L11.27 13.04L22.5 13.04L22.5 24.28C22.07 24.29 21.67 24.48 21.37 24.79C21.07 25.1 20.9 25.51 20.9 25.94L20.9 26.04C20.9 26.4 21.02 26.75 21.23 27.04L22.46 28.67C22.49 28.71 22.5 28.76 22.5 28.81L22.5 28.82C22.5 28.89 22.48 28.96 22.43 29.01C22.38 29.06 22.31 29.09 22.24 29.09L11.27 29.09L11.27 24.18Z" fill="#000000" fill-opacity="1.000000" fill-rule="nonzero"/>
	<path id="Delivery  Food" d="M61.94 13.41L63.29 13.41L63.29 2.16L61.94 2.16L61.94 13.41ZM65.56 2.98Q65.47 3.16 65.47 3.38Q65.47 3.61 65.57 3.79Q65.61 3.86 65.67 3.93Q65.69 3.95 65.72 3.97Q65.92 4.15 66.27 4.15Q66.62 4.15 66.82 3.97Q66.85 3.95 66.87 3.93Q66.94 3.86 66.99 3.77Q67.08 3.6 67.08 3.38Q67.08 3.17 66.99 3Q66.95 2.9 66.87 2.82Q66.84 2.79 66.81 2.76Q66.61 2.6 66.27 2.6Q65.93 2.6 65.73 2.76Q65.7 2.79 65.67 2.82Q65.61 2.9 65.56 2.98ZM44.23 2.74L44.23 13.41L47.18 13.41Q48.62 13.39 49.7 12.78Q50.16 12.52 50.53 12.17Q51.03 11.69 51.36 11.04Q51.95 9.91 51.95 8.4L51.95 7.72Q51.94 6.24 51.35 5.11Q51.01 4.43 50.48 3.93Q50.13 3.6 49.7 3.36Q49.63 3.31 49.55 3.27Q48.54 2.74 47.24 2.74L44.23 2.74ZM45.64 12.26L45.64 3.9L47.28 3.9Q48.43 3.91 49.2 4.46Q49.47 4.66 49.7 4.92Q50.55 5.93 50.55 7.74L50.55 8.37Q50.55 10.24 49.65 11.25Q49.43 11.49 49.18 11.67Q48.36 12.26 47.12 12.26L45.64 12.26ZM55.29 13.1Q56.09 13.55 57.15 13.55Q58.34 13.55 59.17 13.01Q59.74 12.64 60.14 12.02L59.31 11.38Q58.98 11.8 58.56 12.08Q58.5 12.12 58.44 12.15Q57.94 12.45 57.23 12.45Q56.66 12.45 56.21 12.22Q55.85 12.05 55.56 11.73Q55.47 11.63 55.39 11.52Q54.9 10.84 54.87 9.83L60.24 9.83L60.24 9.27Q60.24 7.37 59.39 6.35Q59.13 6.05 58.82 5.84Q58.07 5.34 56.98 5.34Q56.59 5.34 56.21 5.43Q55.7 5.56 55.23 5.86Q55.03 5.99 54.86 6.14Q54.31 6.61 53.97 7.31Q53.52 8.24 53.52 9.41L53.52 9.66Q53.52 11.13 54.21 12.1Q54.35 12.31 54.53 12.5Q54.88 12.86 55.29 13.1ZM77.71 13.1Q78.51 13.55 79.56 13.55Q80.75 13.55 81.58 13.01Q82.15 12.64 82.55 12.02L81.73 11.38Q81.4 11.8 80.97 12.08Q80.91 12.12 80.85 12.15Q80.36 12.45 79.64 12.45Q79.08 12.45 78.62 12.22Q78.26 12.05 77.97 11.73Q77.88 11.63 77.8 11.52Q77.31 10.84 77.29 9.83L82.66 9.83L82.66 9.27Q82.66 7.37 81.8 6.35Q81.55 6.05 81.23 5.84Q80.49 5.34 79.4 5.34Q79 5.34 78.62 5.43Q78.11 5.56 77.64 5.86Q77.45 5.99 77.27 6.14Q76.72 6.61 76.38 7.31Q75.93 8.24 75.93 9.41L75.93 9.66Q75.93 11.13 76.62 12.1Q76.77 12.31 76.94 12.5Q77.29 12.86 77.71 13.1ZM87.39 6.65Q87.75 6.65 88.06 6.7L88.06 5.44Q87.86 5.34 87.46 5.34Q86.88 5.34 86.43 5.57Q85.92 5.84 85.57 6.4L85.55 5.48L84.23 5.48L84.23 13.41L85.59 13.41L85.59 7.78Q85.79 7.29 86.16 7.01Q86.64 6.65 87.39 6.65ZM65.58 13.41L66.94 13.41L66.94 5.48L65.58 5.48L65.58 13.41ZM73.69 5.48L71.73 11.57L69.71 5.48L68.33 5.48L71.2 13.41L72.23 13.41L75.08 5.48L73.69 5.48ZM93.88 5.48L92.04 11.42L90.06 5.48L88.58 5.48L91.41 13.32L91.11 14.12Q90.86 14.86 90.47 15.14Q90.09 15.42 89.4 15.42L89.04 15.39L89.04 16.49L89.54 16.59L89.8 16.61Q90.28 16.61 90.69 16.43Q91.63 16.01 92.15 14.63L95.33 5.48L93.88 5.48ZM56.23 6.6Q56.57 6.45 56.98 6.45Q57.55 6.45 57.96 6.7Q58.16 6.83 58.33 7.02Q58.83 7.58 58.89 8.62L58.89 8.72L54.92 8.72Q55.05 7.64 55.61 7.05Q55.88 6.75 56.23 6.6ZM78.64 6.6Q78.98 6.45 79.4 6.45Q79.96 6.45 80.37 6.7Q80.58 6.83 80.74 7.02Q81.24 7.58 81.3 8.62L81.3 8.72L77.33 8.72Q77.46 7.64 78.02 7.05Q78.3 6.75 78.64 6.6ZM69.79 24.45Q68.93 25.55 68.93 27.38L68.93 27.48Q68.93 29.3 69.79 30.42Q70.27 31.04 70.89 31.32Q71.42 31.55 72.04 31.55Q73 31.55 73.68 31.12Q74.03 30.89 74.31 30.56L74.37 31.41L75.62 31.41L75.62 20.16L74.26 20.16L74.26 24.29Q73.98 23.95 73.62 23.74Q72.96 23.34 72.06 23.34Q71.37 23.34 70.81 23.6Q70.23 23.88 69.79 24.45ZM45.64 26.7L50.11 26.7L50.11 25.55L45.64 25.55L45.64 21.9L50.84 21.9L50.84 20.74L44.23 20.74L44.23 31.41L45.64 31.41L45.64 26.7ZM52.25 25.28Q51.79 26.21 51.79 27.37L51.79 27.47Q51.79 29.09 52.57 30.16Q52.67 30.3 52.79 30.43Q53.19 30.88 53.68 31.15Q54.43 31.55 55.4 31.55Q56.28 31.55 56.99 31.21Q57.14 31.13 57.29 31.04Q57.6 30.85 57.85 30.61Q58.28 30.19 58.56 29.61Q59.01 28.69 59.01 27.53L59.01 27.44Q59.01 25.79 58.22 24.72Q58.12 24.58 58 24.46Q57.62 24.02 57.14 23.76Q56.38 23.34 55.39 23.34Q54.58 23.34 53.9 23.64Q53.7 23.73 53.52 23.84Q53.33 23.96 53.16 24.1Q52.6 24.56 52.25 25.28ZM60.8 25.28Q60.35 26.21 60.35 27.37L60.35 27.47Q60.35 29.09 61.12 30.16Q61.22 30.3 61.34 30.43Q61.74 30.88 62.24 31.15Q62.99 31.55 63.96 31.55Q64.83 31.55 65.54 31.21Q65.7 31.13 65.85 31.04Q66.15 30.85 66.4 30.61Q66.84 30.19 67.11 29.61Q67.56 28.69 67.56 27.53L67.56 27.44Q67.56 25.79 66.77 24.72Q66.67 24.58 66.56 24.46Q66.17 24.02 65.69 23.76Q64.93 23.34 63.94 23.34Q63.13 23.34 62.46 23.64Q62.26 23.73 62.07 23.84Q61.88 23.96 61.71 24.1Q61.15 24.56 60.8 25.28ZM53.76 29.65Q53.15 28.85 53.15 27.53Q53.15 26.05 53.77 25.25Q54.08 24.84 54.49 24.64Q54.89 24.45 55.39 24.45Q55.91 24.45 56.32 24.66Q56.73 24.86 57.03 25.26Q57.65 26.07 57.65 27.37Q57.65 28.83 57.04 29.64Q56.76 30.02 56.38 30.22Q55.95 30.45 55.4 30.45Q54.87 30.45 54.44 30.23Q54.06 30.03 53.76 29.65ZM62.32 29.65Q61.71 28.85 61.71 27.53Q61.71 26.05 62.32 25.25Q62.63 24.84 63.05 24.64Q63.45 24.45 63.94 24.45Q64.46 24.45 64.88 24.66Q65.28 24.86 65.58 25.26Q66.21 26.07 66.21 27.37Q66.21 28.83 65.6 29.64Q65.31 30.02 64.93 30.22Q64.5 30.45 63.96 30.45Q63.42 30.45 63 30.23Q62.61 30.03 62.32 29.65ZM70.84 29.64Q70.29 28.88 70.29 27.53Q70.29 26.02 70.84 25.25Q71.09 24.91 71.42 24.72Q71.84 24.49 72.39 24.49Q73.01 24.49 73.47 24.75Q73.95 25.03 74.26 25.61L74.26 29.25Q73.96 29.83 73.48 30.12Q73.01 30.4 72.38 30.4Q71.84 30.4 71.43 30.17Q71.09 29.99 70.84 29.64Z" fill="#000000" fill-opacity="1.000000" fill-rule="evenodd"/>
</svg>
