<svg width="16.000000" height="16.000000" viewBox="0 0 16 16" fill="none" xmlns="http://www.w3.org/2000/svg" xmlns:xlink="http://www.w3.org/1999/xlink">
	<desc>
			Created with Pixso.
	</desc>
	<defs>
		<clipPath id="clip8_117">
			<rect id="icon/outlined/application/shopping-cart" width="16.000000" height="16.000000" transform="translate(0.000000 -0.237000)" fill="white" fill-opacity="0"/>
		</clipPath>
	</defs>
	<rect id="icon/outlined/application/shopping-cart" width="16.000000" height="16.000000" transform="translate(0.000000 -0.237000)" fill="#FFFFFF" fill-opacity="0"/>
	<g clip-path="url(#clip8_117)">
		<path id="Vector" d="M14.42 10.73L5.11 10.73L5.58 9.77L13.34 9.76C13.6 9.76 13.83 9.57 13.87 9.31L14.95 3.3C14.98 3.14 14.94 2.98 14.83 2.85C14.78 2.79 14.72 2.74 14.65 2.71C14.57 2.67 14.5 2.66 14.42 2.66L4.54 2.62L4.46 2.23C4.4 1.97 4.18 1.79 3.92 1.79L1.5 1.79C1.36 1.79 1.22 1.85 1.11 1.95C1.01 2.05 0.95 2.19 0.95 2.34C0.95 2.49 1.01 2.63 1.11 2.73C1.22 2.83 1.36 2.89 1.5 2.89L3.47 2.89L3.84 4.65L4.75 9.04L3.58 10.95C3.52 11.03 3.48 11.13 3.47 11.23C3.46 11.33 3.48 11.43 3.53 11.52C3.62 11.71 3.81 11.83 4.02 11.83L5 11.83C4.79 12.1 4.68 12.44 4.68 12.79C4.68 13.68 5.4 14.39 6.29 14.39C7.17 14.39 7.89 13.68 7.89 12.79C7.89 12.44 7.77 12.1 7.57 11.83L10.08 11.83C9.87 12.1 9.76 12.44 9.76 12.79C9.76 13.68 10.48 14.39 11.37 14.39C12.25 14.39 12.97 13.68 12.97 12.79C12.97 12.44 12.85 12.1 12.65 11.83L14.42 11.83C14.72 11.83 14.97 11.58 14.97 11.28C14.97 11.13 14.91 10.99 14.8 10.89C14.7 10.78 14.56 10.73 14.42 10.73ZM4.77 3.71L13.77 3.74L12.89 8.68L5.82 8.69L4.77 3.71ZM6.29 13.28C6.01 13.28 5.79 13.06 5.79 12.79C5.79 12.52 6.01 12.3 6.29 12.3C6.56 12.3 6.78 12.52 6.78 12.79C6.78 12.92 6.73 13.05 6.63 13.14C6.54 13.23 6.42 13.28 6.29 13.28ZM11.37 13.28C11.09 13.28 10.87 13.06 10.87 12.79C10.87 12.52 11.09 12.3 11.37 12.3C11.64 12.3 11.86 12.52 11.86 12.79C11.86 12.92 11.81 13.05 11.71 13.14C11.62 13.23 11.5 13.28 11.37 13.28Z" fill="#FFFFFF" fill-opacity="1.000000" fill-rule="nonzero"/>
	</g>
</svg>
