<svg width="18.000000" height="18.000000" viewBox="0 0 18 18" fill="none" xmlns="http://www.w3.org/2000/svg" xmlns:xlink="http://www.w3.org/1999/xlink">
	<desc>
			Created with Pixso.
	</desc>
	<defs>
		<clipPath id="clip5_76">
			<rect id="icon/outlined/application/search" width="18.000000" height="18.000000" fill="white" fill-opacity="0"/>
		</clipPath>
	</defs>
	<rect id="icon/outlined/application/search" width="18.000000" height="18.000000" fill="#FFFFFF" fill-opacity="0"/>
	<g clip-path="url(#clip5_76)">
		<path id="Vector" d="M15.98 15.02L11.42 10.45C12.13 9.53 12.51 8.41 12.51 7.24C12.51 5.83 11.96 4.51 10.97 3.51C9.97 2.51 8.65 1.96 7.24 1.96C5.83 1.96 4.5 2.51 3.51 3.51C2.51 4.5 1.96 5.83 1.96 7.24C1.96 8.65 2.51 9.97 3.51 10.97C4.5 11.96 5.83 12.51 7.24 12.51C8.41 12.51 9.53 12.13 10.45 11.42L15.01 15.98C15.03 16 15.04 16.01 15.06 16.02C15.08 16.02 15.1 16.03 15.12 16.03C15.13 16.03 15.15 16.02 15.17 16.02C15.19 16.01 15.2 16 15.22 15.98L15.98 15.22C16 15.21 16.01 15.19 16.02 15.17C16.02 15.16 16.03 15.14 16.03 15.12C16.03 15.1 16.02 15.08 16.02 15.06C16.01 15.04 16 15.03 15.98 15.02ZM10.02 10.02C9.28 10.77 8.29 11.17 7.24 11.17C6.19 11.17 5.2 10.77 4.45 10.02C3.71 9.28 3.3 8.29 3.3 7.24C3.3 6.19 3.71 5.2 4.45 4.45C5.2 3.71 6.19 3.3 7.24 3.3C8.29 3.3 9.28 3.71 10.02 4.45C10.77 5.2 11.17 6.19 11.17 7.24C11.17 8.29 10.77 9.28 10.02 10.02Z" fill="#8C8C8C" fill-opacity="1.000000" fill-rule="nonzero"/>
	</g>
</svg>
