<svg width="15.000000" height="14.000000" viewBox="0 0 15 14" fill="none" xmlns="http://www.w3.org/2000/svg" xmlns:xlink="http://www.w3.org/1999/xlink">
	<desc>
			Created with Pixso.
	</desc>
	<defs/>
	<path id="Vector" d="M14.65 5.24C14.55 4.94 14.29 4.73 13.97 4.7L9.73 4.32L8.06 0.39C7.93 0.1 7.65 -0.08 7.34 -0.08C7.03 -0.08 6.75 0.1 6.62 0.39L4.95 4.32L0.7 4.7C0.39 4.73 0.13 4.94 0.03 5.24C-0.06 5.53 0.03 5.86 0.26 6.07L3.47 8.88L2.52 13.04C2.45 13.35 2.57 13.66 2.83 13.85C2.96 13.94 3.12 14 3.28 14C3.42 14 3.56 13.96 3.68 13.88L7.34 11.7L11 13.88C11.26 14.04 11.6 14.03 11.85 13.85C12.11 13.66 12.23 13.35 12.16 13.04L11.21 8.88L14.42 6.07C14.65 5.86 14.74 5.54 14.65 5.24Z" fill="#FFC107" fill-opacity="1.000000" fill-rule="nonzero"/>
</svg>
