<svg width="16.000000" height="16.000000" viewBox="0 0 16 16" fill="none" xmlns="http://www.w3.org/2000/svg" xmlns:xlink="http://www.w3.org/1999/xlink">
	<desc>
			Created with Pixso.
	</desc>
	<defs>
		<clipPath id="clip3_131">
			<rect id="icon/outlined/application/user" width="16.000000" height="16.000000" fill="white" fill-opacity="0"/>
		</clipPath>
	</defs>
	<rect id="icon/outlined/application/user" width="16.000000" height="16.000000" fill="#FFFFFF" fill-opacity="0"/>
	<g clip-path="url(#clip3_131)">
		<path id="Vector" d="M13.41 11.93C13.11 11.23 12.69 10.59 12.15 10.06C11.61 9.52 10.98 9.1 10.28 8.8C10.28 8.8 10.27 8.79 10.26 8.79C11.24 8.09 11.87 6.94 11.87 5.65C11.87 3.51 10.14 1.78 8 1.78C5.85 1.78 4.12 3.51 4.12 5.65C4.12 6.94 4.75 8.09 5.73 8.79C5.72 8.8 5.71 8.8 5.71 8.8C5.01 9.1 4.38 9.52 3.84 10.06C3.3 10.6 2.88 11.23 2.58 11.93C2.29 12.61 2.13 13.34 2.12 14.09C2.12 14.1 2.12 14.12 2.13 14.13C2.14 14.15 2.14 14.16 2.16 14.18C2.17 14.19 2.18 14.2 2.2 14.2C2.21 14.21 2.23 14.21 2.25 14.21L3.18 14.21C3.25 14.21 3.31 14.16 3.31 14.09C3.34 12.89 3.82 11.76 4.68 10.9C5.57 10.01 6.74 9.53 8 9.53C9.25 9.53 10.43 10.01 11.31 10.9C12.17 11.76 12.65 12.89 12.68 14.09C12.68 14.16 12.74 14.21 12.81 14.21L13.75 14.21C13.76 14.21 13.78 14.21 13.79 14.2C13.81 14.2 13.82 14.19 13.83 14.18C13.85 14.16 13.86 14.15 13.86 14.13C13.87 14.12 13.87 14.1 13.87 14.09C13.85 13.34 13.7 12.61 13.41 11.93ZM8 8.34C7.28 8.34 6.6 8.06 6.1 7.55C5.59 7.04 5.31 6.37 5.31 5.65C5.31 4.93 5.59 4.26 6.1 3.75C6.6 3.24 7.28 2.96 8 2.96C8.71 2.96 9.39 3.24 9.9 3.75C10.4 4.26 10.68 4.93 10.68 5.65C10.68 6.37 10.4 7.04 9.9 7.55C9.39 8.06 8.71 8.34 8 8.34Z" fill="#FFFFFF" fill-opacity="1.000000" fill-rule="nonzero"/>
	</g>
</svg>
