<svg width="36.000000" height="20.000000" viewBox="0 0 36 20" fill="none" xmlns="http://www.w3.org/2000/svg" xmlns:xlink="http://www.w3.org/1999/xlink">
	<desc>
			Created with Pixso.
	</desc>
	<defs/>
	<path id="Vector" d="M17.09 19.23L19.19 19.23C19.19 19.23 19.82 19.16 20.14 18.81C20.44 18.49 20.43 17.89 20.43 17.89C20.43 17.89 20.39 15.08 21.69 14.66C22.98 14.25 24.63 17.38 26.38 18.58C27.71 19.49 28.71 19.29 28.71 19.29L33.39 19.23C33.39 19.23 35.84 19.07 34.68 17.15C34.59 16.99 34.01 15.72 31.2 13.12C28.27 10.4 28.66 10.84 32.2 6.13C34.35 3.26 35.21 1.5 34.94 0.75C34.68 0.04 33.1 0.23 33.1 0.23L27.83 0.26C27.83 0.26 27.44 0.21 27.15 0.38C26.87 0.55 26.69 0.94 26.69 0.94C26.69 0.94 25.85 3.17 24.74 5.05C22.39 9.04 21.45 9.25 21.07 9C20.18 8.43 20.4 6.68 20.4 5.45C20.4 1.59 20.99 -0.02 19.26 -0.44C18.69 -0.58 18.27 -0.67 16.8 -0.69C14.92 -0.71 13.33 -0.68 12.43 -0.24C11.83 0.05 11.36 0.71 11.65 0.75C12 0.79 12.78 0.96 13.2 1.53C13.74 2.26 13.72 3.92 13.72 3.92C13.72 3.92 14.04 8.46 13 9.03C12.29 9.41 11.31 8.62 9.22 5.01C8.15 3.16 7.34 1.11 7.34 1.11C7.34 1.11 7.18 0.73 6.9 0.52C6.57 0.27 6.09 0.2 6.09 0.2L1.08 0.23C1.08 0.23 0.33 0.25 0.06 0.57C-0.19 0.87 0.04 1.47 0.04 1.47C0.04 1.47 3.96 10.64 8.4 15.26C12.47 19.5 17.09 19.23 17.09 19.23Z" fill="#1E88E5" fill-opacity="1.000000" fill-rule="nonzero"/>
</svg>
